<svg xmlns="http://www.w3.org/2000/svg" viewBox="0 0 100 100"><path d="M84.2 68c-9.9-3.8-21.8-2.8-30.5-1.1 3.5-3.8 5.2-7.4 5.1-10.9-.2-4.7-3.6-8.5-10.1-11.4l-.5-.2v.1c-8.1-3.5-8.5-5.7-8.5-5.7.2-1.2 5.2-3.8 11.3-4.3.1.1.2.1.3.1 2.7 1.4 6.3 1.8 10 1.1 5.3-1.1 9.4-4.4 10.3-8.1l.1-.2-.1-.2c-2.1-3.1-7.2-4.4-12.6-3.4-1.3.2-2.6.6-3.7 1.2 0-1.3-.2-2.5-.4-3.7-1.2-5.3-4.6-9.4-8.3-10.1h-.2l-.2.1c-3 2.3-4.3 7.5-3.1 12.7.4 1.7.9 3.1 1.6 4.3-1.3.3-2.4.7-3.4 1.1-4.8 1.9-7.7 4.6-8.3 7.8-1 5.1 3.2 9.7 12.6 13.5.1.1.3.1.4.2.1 0 .2.1.3.1v.1l.3.1c3.3 1.6 5.2 3.4 5.3 5.1.2 3.5-5.5 8.4-10.5 11.6-.7.5-1.3.8-1.9 1.2-9.1-.2-19 1.2-27.9 4.1-.1 0-.3.1-.3.1h-.1c-.4.1-.7.4-.8.8-.2.4-.2.8 0 1.2 0 .1.1.1.1.2l-.6.6.8-.3c.3.3.7.5 1.1.5.2 0 .3 0 .5-.1 0 0 .9-.3 2.3-.7 4.2-1.3 12.8-3.4 23.1-3.4h.4l.1-.2h.6l-.6.1h5.7c.2.1.3.1.5.1l2.7.3c6.5.9 12.5 2.7 17.9 5.5h-.4l2.3 1.2c.5.3 1 .6 1.7 1 .3.2.5.2.7.2.5 0 1.1-.3 1.3-.8.2-.3.3-.7.2-1.1-.1-.4-.3-.7-.7-.9-5.4-3.4-11.5-5.9-18.3-7.3 6.6-1.4 16.7-2.9 25.8-1.3h-.4l3.8.9c.9.2 1.7.5 2.4.8.7.3 1.6-.1 1.9-.9 0-.5-.4-1.4-1.1-1.7z"/></svg>